<svg xmlns="http://www.w3.org/2000/svg" width="1645" height="2961" fill="none" viewBox="0 0 1645 2961">
  <path fill="#D08B5B" fill-rule="evenodd" d="m526.001 990.539-1.415 16.881-1.056-1.98c-.15 34.06-5.195 68.49-10.759 102.47-14.544-11.96-26.5-22.51-23.047-42.93 8.746-29.1 19.963-57.49 29.031-86.437l1.52 7.59 5.986 1.206-.26 3.2ZM1564.71 2784.67c-2.68-11.83-5.6-24.36-8.34-36.22-.27-1.01-2.78-1.23-3.58-1.5-14.48-35.46-27.15-43.54-55.19-48.37-45.22-8.18-89.84-25.92-132.55-52.2.99-3.92 3.72-10.67 6.2-17.89-.33.12-.65.21-.99.28-.57.11-1.11.13-1.62.1-2.9 6.8-6.05 12.78-7.72 14.98-5.34-3.44-11.27-7.22-16.5-10.88l.02-.07c-4.65-3.22-10.4-7.21-14.96-9.69-.85-4.72-7.76-6.18-11.37-9.3-7.01-5-10.9-7.59-17.33-1.19-13.86-18.01-25.03-37.06-36.01-61.68-6.87-14.39-10.24-30.33-19.48-43.18.18-.1 6.05-1.93 6.19-2.09-104.97-232.6-121.78-491.42-144.18-740.04-4.93-55.6-10.1-111.71-19.73-165.68-1.32-8.18-2.51-16.23-7.42-22.74 58.99-48.62 59.56-142.85 30.99-212.75 65.69-177.26-63.08-365.527-53.58-546.435 5.33-122.713-16.75-264.898-155.339-294.341-17.186-9.894-37.789-11.371-54.188-11.638-14.764-7.46-17.091-23.931-22.347-37.471l-5.136.032c-1.507-6.128-2.999-12.847-4.295-19.021-1.949-3.915-.794-9.017-6.934-7.932-13.916-20.152-125.285-30.283-126.55 2.165-4.02 2.371-4.814 6.999-5.75 12.619-6.176 39.852-48.724 71.633-87.061 65.224l-.621-.561c-163.212-6.05-227.463 110.086-259.356 268.362-24.919 122.978-40.758 256.257-21.244 379.437 19.065 55.82 76.812 82.68 121.488 117.07-5.15 12.98-5.631 27.3-5.788 41.35-.589 16.21-1.768 32.56-3.202 48.56-2.938 20.27-7.694 55.17 19.898 57.54 10.689 242.31 33.015 483.99-1.1 727.01-28.321 134.4-17.479 297.02 17.538 428.52 2.02 6.49 7.209 12.34 13.837 10.26 3.366 2.18 5.995 3.54 8.778 1.49a96.256 96.256 0 0 0 5.38 8.79c.735 36.12 4.83 71.57 2.966 107.93-2.78-.32-8.895-3.38-11.271-1.38l-.34 2.77-2.262.77c-4.735 13.37-7.706 27.39-9.904 38.71-9.581 19.39-21.822 53.71-14.996 75.32-.331.38-2.169 2.52-2.458 2.85-1.631.93-1.932 2.18-2.33 3.61-4.65 1.75-5.127 7.06-5.606 12.5-2.329 13.17 1.131 25.14 2.32 38.02l.07-.09s3.904 4.53 3.91 4.54c49.065 2.98 97.38 3.75 146.227 5.5 3.686-7.06 4.796-16.6 7.566-24.36 57.91 42.38 158.245 26.16 230.984 15.76 29.54-4.26 57.448-8.29 82.191-9.63 1.61-.22 1.725-.91 1.767-1.56.243-9.69 2.067-19.64 1.157-29.05 5.109-4.97 2.78-14.01-.731-21.96-12.911-27.97-48.004-31.03-76.436-35.8-53.49-10.38-96.502-29.92-131.297-59.77a118.14 118.14 0 0 0 6.402-6.24c-.756-.5-1.512-1-2.266-1.51-1.831-.8-3.582-1.63-5.188-2.67-.818.46-1.843.56-2.855-.01-3.497-1.96-6.347-4.85-9.669-7.06-.659.95-1.321 1.91-1.987 2.92-3.186-3.36-6.792-7.16-9.943-10.68-.113-.98.143-3.4-1.044-3.67-8.958.91-19.334 3.93-28.705 7.28-10.592-34.81-16.727-72.49-16.019-108.07 10.416 0 19.539-.1 27.306-5.05 2.123.57 5.081 1.8 5.63-1.54 3.152-13.62 3.971-28.05 4.764-42 16.122-263.9 40.686-475.96 122.16-699.52 7.824 31.04 20.96 63.33 32.914 94.23 54.384 129.14 93.564 268.4 127.149 403.95 13.214 50.74 27.578 106.49 41.765 156.69 5.501 24.14 16.681 32.98 40.121 32.78 18.06.85 36.18.59 54.32-.68 24.72 22.54 34.85 52.97 42.08 80.37-6.02 4.47-15.57 2.79-22.61 4.26-6.06 9.78-3.96 23.46-3.82 35.52.95 15.68.14 32.49 4.7 47.29.82 16.19.92 33.92 2.14 52.74-13.41 7.77-10.95 24.95-6.5 41.38 1.99 4.18 74.02 3.35 91.89 3.18 20.99-1.22 50.93 4.14 57.82-18.88 49.99 27.77 126.03 18.39 184.27 10.21 42.26-5.15 80.55-9.94 122.06-18.68.43-.19 1.03-1.53.73-2.14Z" clip-rule="evenodd"/>
  <path fill="#1C2E38" d="M452.697 1413.62c12.692-1.35 141.842 8.69 154.743 5.69l.569-.14 5.022-1.2 2.916 4.26c14.4 21.06 21.659 34.88 25.286 48.92l.252 1 .103.42c3.054 12.65 3.292 24.36 1.636 48.12l-.171 2.41-.193 2.63-.463 6.13.011.04c.802 2.58 3.293 3.34 6.391 1.6l.217-.12.097-.06.334-.23c6.639-4.67 11.102-10.82 14.075-18.91l.205-.56.201-.58c2.382-6.94 3.621-14.41 4.674-26.37l.187-2.19.587-7.34c.834-10.28 1.456-15.74 2.628-21.57l.156-.76 3.339-15.6 9.86 11.58c4.942 5.81 7.963 13.73 9.842 24.11l.22 1.25c1.02 5.96 1.607 11.93 2.218 21.51l.171 2.77.534 9.06.211 3.31c.816 12.27 1.627 18.66 3.26 24.68l.172.63.124.43c2.126 7.31 5.009 11.04 9.207 12.21l.254.07.099.02.167-.01c4.781-.32 5.985-2.63 5.647-10.36l-.037-.76-.021-.37-.055-.86-.12-1.58.08-.96c.323-3.64.971-6.69 2.389-11.85l.155-.56 1.392-4.97.314-1.19c3.443-13.4 4.161-28.2 2.252-43.28l-.131-1.01-4.957-36.92 18.858 32.13c12.492 21.28 19.882 45.55 21.849 70.86l.084 1.14.064.94c.956 1.7 2.801 2.09 4.351.93l.159-.12.147-.13c4.039-3.68 6.529-10.32 8.85-22.04l.12-.61.906-4.76.418-2.15.25-1.07c4.424-19.18 5.347-34.41 2.016-48.21l-.164-.67-6.026-23.9 18.317 16.49c2.924 2.64 5.904 5.18 8.918 7.62 5.754 4.62 10.335 5.15 13 3.13 2.853-2.18 4.135-7.48 2.299-14.52l-.107-.4-3.288-11.95 12.115 2.64c40.743 8.87 78.137 13.2 112.951 12.22 40.062-1.13 75.697-9.34 106.607-25.61l.99-.53 8.85-4.72 2.03 9.82c2.95 14.29 2.22 28.98-1.63 45.05l-.28 1.12c-2.67 10.88-6.18 20.78-12.68 36.83l-.68 1.68-3.08 7.53-2.29 5.66-1.08 2.69c-3.27 8.35-4.32 14.53-3.61 18.24.39 1.97 1.01 2.62 2.52 2.96 5.54 1.23 16.55-3.31 26.61-11.9l.43-.37 10.32-9.06 3.4 15.91-.81 2.09c-1.92 4.97-2.59 9.71-1.8 13.48l.09.37.78 3.25-1.89 2.75c-.15.21-.13.48.25 1.06.48.74 1.23 1.2 1.79 1.25h.12l6.47-.21 1.16 6.36.63 3.55c4.85 27.28 22.6 215.59 22.6 215.59 3.89 49.23 49.99 379.05 58.66 421.15 19.57 101.44 42.95 189.47 73.32 271.03l.92 2.47 2.48 6.64-6.47 2.86c-59.43 26.23-127.72 38.15-196.72 35.28l-1.93-.09h-.76c-15.23-.24-22.87-6.69-26.71-21.4l-.24-.91-.1-.45-.14-.57-2.52-8.58c-8.045-27.42-99.438-365.17-114.318-412.05l-.973-3.06-1.797-5.61-1.576-4.88c-20.774-64.01-42.63-120.44-67.595-172.89l-.859-1.8-.17-.31c-2.805-5.12-5.044-10.46-7.568-17.68l-.272-.78-.532-1.55-.4-1.18-2.406-7.26-.835-2.48-.343-1.13c-2.948-9.88-4.558-19.36-4.671-28.62l-.006-.96v-.12l-.464 1.04c-9.802 22.17-20.908 51.45-32.328 86.26l-.457 1.39-1.458 4.49c-31.131 96.49-53.398 199.82-69.578 316.33l-.875 6.35c-12.076 88.44-20.039 176.35-28.654 304.21l-.801 11.98-.94 14.24-5.797 1.02c-6.633 1.17-12.363 2.74-17.45 4.88l-.689.29-1.188.52-1.292.09-16.944 1.21c-1.394.1-2.679.18-3.91.26l-3.619.22c-50.172 3.27-91.949.84-130.65-9.32l-1.183-.31-1.484-.36-14.056-3.52L422 2355l24.979-215.51.901-6.47c14.809-108.46-2.505-597.68-3.691-630l-.247-6.89-.23-6.64-.314-4.87-1.102-19.05-.178-2.82c-1.06-16.31-2.33-27.37-4.65-38.29l-1.805-8.36 7.816-1.25c3.037-.49 6.107-.9 9.218-1.23Z"/>
  <path fill="#fff" fill-rule="evenodd" d="M905 2850c8.769 10.12 6 32 6 32-.546.21-141.076 24.95-236 24-38.713-.39-65.747-27-79-27-4 0-1.937 25.48-17 23l-138.132-6.11L438 2850l14-15s100.566 20.02 152 15c60.886-5.94 288-15 301 0Zm643-102c10.12 8.4 12.47 30.55 12.47 30.55s-114.28 26.25-152.69 27.04l-7.43.14-8.55.13c-11.04.13-83.8 10.14-130.8-11.86-8.73-4.08-24.36 14.63-38.18 14.69-47.56.18-115.82-2.69-115.82-2.69-.18-3.17-2.8-18.82-3.05-23.7 0 0 8.71-17.68 9.05-27.3.45-12.94 84.17 1.15 177 0 116.3-1.44 247.8-15.47 258-7Z" clip-rule="evenodd"/>
  <path fill="#100303" fill-rule="evenodd" d="M680.26 441.204c3.23-.651 6.01.309 7.97 2.08.42 4.37.37 8.729.01 13.089-.36.31-.76.611-1.2.89l.334-.214c.303-.196.511-.34.646-.446-4.26 28.417-23.983 52.59-49.55 65.44-1.582 2.61-5.16 2.433-7.73 3.61l-3.612 1.137c-9.944 3.119-20.009 6.067-30.528 6.263 26.746 75.151 131.339 115.98 205.329 121.528 63.9 3.369 99.359-49.64 82.501-109.097-37.017-4.792-73.41-44.184-59.992-82.248l.422-1.153c.09-.389.61-.25.65.09.41 3.88 2.72 8.151 3.749 11.941l.474 1.346c3.56 10.263 6.72 22.501 16.777 27.963l1.72.039c18.091.472 36.981 2.862 52.91 11.822 17.762 3.491 34.74 10.53 50.546 19.251 124.824 67.788 104.844 211.972 108.734 332.048 12.11 164.537 112.33 328.967 53.22 494.147 26.99 68.79 29.08 161.25-29.83 213.73.65 1.02 1.19 2.13 1.65 3.28 2.8 7 3.67 15.02 5 22.45l.15.85c3.19 17.28 5.48 34.74 7.72 52.16 4.42 34.37 7.63 68.89 10.68 103.41l.44 4.93c7.66 86.76 14.34 173.71 24.38 260.25l1.88 12.83c13.59 92.65 28.4 185.51 50.7 276.3.65 2.44 1.31 4.87 1.98 7.3 8.03 29.12 17.49 57.76 26.38 86.61 2.82 9.14 5.94 18.13 9.22 27.06l4.09 10.14c.68 1.69 1.36 3.38 2.05 5.07 7.25 17.83 14.97 35.46 23.1 52.91 1.46 3.15-.67 6.05-3.19 6.86 7.42 11.77 10.22 25.79 16.42 38.29 8.87 19.93 19.37 39.32 32.48 56.8 7.25-5.45 15.35 1.59 21.38 5.61 3.87 2.41 8.89 4.22 10.41 8.47 2.92 1.68 5.76 3.53 8.45 5.38l.27-.87c3.27-10.46 9.66-24.5 20.05-29.17 12.15-5.11 21.84 5.08 18.2 17.26-2.23 10.89-5.71 21.31-9.42 31.81 37.37 22.57 78.23 39.69 121.21 48.27l1.47.29c10.37 2.06 20.91 3.49 30.42 8.42 15.75 8.65 25.93 25.09 32.29 41.53 2.21.54 4.24 2.47 4.73 4.59l4.19 18.13c1.4 6.05 2.79 12.09 4.16 18.14.75 3.28-1 7.41-4.62 8.14-24.95 4.99-50.02 9.36-75.2 13.06-71.48 6.62-163.45 29.89-229.82-2.79-10.59 21.78-40.08 15.55-60.09 17.19-12.16-.9-97.47 3.74-96.66-6.57l-.47-1.77c-3.77-14.41-7.17-33.77 6.57-43.69-.86-16.26-1.5-32.53-1.77-48.8-4.79-15.44-3.96-32.52-4.93-48.64.12-12.01-2.68-25.88 3.89-36.63.58-7.12 16.4-3.32 21.64-5.93l-.46-1.69c-7.23-26.21-17.28-51.71-37.57-70.9a465.632 465.632 0 0 1-52.7.55c-26.74.11-38.937-11.48-44.76-36.65-4.17-14.76-8.24-29.55-12.25-44.36-31.285-116.51-59.693-234.05-94.267-349.67-13.217-38.74-27.838-77.02-42.58-115.19-9.992-25.88-19.999-51.75-29.998-77.62-5.137-13.29-10.199-26.66-14.664-40.19-1.374-4.16-2.618-8.34-3.793-12.54-77.555 215.54-102.154 444.54-115.878 671.93-1.25 18.16-1.47 36.52-5.58 54.29-1.26 5.47-5.88 6.98-9.96 5.78-7.513 3.98-13.069 4.45-22.74 4.6l.072 3.12c.549 22.35 1.917 44.63 6.988 66.45 2.01 9.11 5.61 17.97 7.56 27.04 7.88-2.68 15.93-4.7 24.21-5.69 4.18-.5 6.57 3 6.74 6.59 1.54 1.7 3.09 3.38 4.67 5.05l.798-1.02c7.436-9.61 16.968-22.77 29.892-23.86 5.88-.36 11.25 2.96 12.531 8.94 1.227 13.74-10.156 28.8-19.761 37.91 35.587 29.44 79.692 46.45 124.709 55.12l1.759.29c28.879 4.73 64.502 8.46 78.272 38.33l.289.64c3.231 7.29 6.284 18.32 1.021 24.99.622 9.12-1.062 18.49-1.28 27.69-.23 3.74-2.75 5.91-6.32 6.33-91.894 4.93-231.965 47.94-310.67-3.24-1.62 5.67-3.29 11.33-4.84 17.02-.68 2.51-3.21 4.56-5.86 4.46-48.72-1.75-97.6-2.54-146.26-5.51-1.416.03-2.6-.6-3.585-1.75-1.142 1.4-4.058 1.02-4.448-.97-.687-3.49-.692-7.04-1.006-10.58-.364-4.1-1.459-7.88-2.101-11.89-1.185-7.4-.652-15.34.082-22.76l.187-1.88c.514-4.91 1.429-10.49 5.865-13.27l.294-.18c.016 0 .032-.01.048-.02.491-1.56 1.655-2.92 3.127-3.99l.087-.1c-2.318-5.53-1.425-12.53-.749-18.3 1.868-20.06 7.483-39.91 16.738-57.72 2.638-13.54 5.837-27.56 10.591-40.45-.13-.59.61-1.09 1.18-.83.197-.1.391-.18.583-.24.024-.2.063-.4.126-.59.821-2.42 3.359-3.75 5.735-4.12 2.013-.32 3.757.21 5.564.67 1.302-35.01-2.834-69.96-3.258-104.96-3.327 1.62-7.062.19-10.13-1.67-8.9 1.37-15.21-6.22-17.651-14.2l-1.431-6.47c-12.83-58.24-24.391-117-30.607-176.37-8.592-82.87 1.787-165.82 14.396-247.72 34.224-215.65 9.433-433.65 6.993-650.49-2.04-23.67-2.884-47.61-5.48-71.27-9.652-1.15-16.949-10.18-20.21-18.84-5.11-13.72-1.42-29.55-.13-43.65 1.43-15.63 2.48-31.29 3.161-46.96l.08-4.57c.232-12.22.763-24.53 4.819-36.16-43.255-33.29-100.616-59.45-118.92-115.12-8.328-7.5-6.651-42.26-8.01-55.02-5.556-110.31 3.858-221.363 27.712-329.203C352.116 643.78 413.275 512.091 584.7 518.383c-.13-.099-.27-.21-.4-.32 1.81-.6 3.68-.01 5.01 1.19 29.189 3.748 57.088-13.496 71.67-38.28 3.58-6.18 6.24-12.63 7.66-19.64l.111-.56c1.484-7.709 1.903-17.637 11.509-19.569ZM458.8 2841.15c-4.143 2.3-8.676 2.57-12.49 5.62-2.68 14.66-2.46 29.87.76 44.42 45.7.49 91.46 2.8 137.14 4.37 1.84-7.07 3.58-14.18 5.5-21.23l.045-.14.101-.28c4.741.16 9.483.3 14.226.42 70.154 50.28 215.501 7.55 300.188 3.35l.87-14.09c-.857.6-1.706.93-2.521 1.05.787-2.06-.612-4.74-3.404-3.96a376.757 376.757 0 0 1-13.581 3.51c-.345-.13-.736-.2-1.174-.16-39.755 3.4-79.673 3.08-119.537 3.2-39.726.12-79.41 1.79-119.14 1.68-16.205-.04-32.409-.29-48.607-.77-46.655-8.66-92.978-18.89-138.376-26.99Zm1088.99-85.91c-1.96 1.43-4.53 1.55-7.26 1.92l-.4.06c-2.49.36-4.99.7-7.51.89-6.21 4.02-18.57 3.47-24.56 4.61-131.42 13.14-263.76-2.45-395.31 8.1-6.28 8.96-4.75 20.05-1.41 30.06 36.73 1.38 73.51 2.13 110.26.54l2.94-.11c4.54-.17 9.19-.5 13.39-2.22 3.75-1.53 8.36-5.32 7.77-9.87l-.04-.26c-.9-5.22 4.58-11.33 9.91-7.62 50.27 33.35 118.57 16.58 175.2 13.3 40.81-4.32 81.4-10.47 121.68-18.26-1.56-7.04-3.11-14.09-4.66-21.14Zm-918.042-147.73c-4.215.49-8.435.92-12.661 1.3-16.949 1.53-33.957 2.3-50.965 2.79l-7.941.22c-15.849.42-31.799.8-47.618-.06-8-.44-16.204-1.38-23.939-3.56 6.805 35.7 10.305 72.05 10.196 108.38 2.125 1.84 1.695 4.88 1.13 7.2l.533 1.58c1.24 3.7 2.424 7.45 2.897 11.23 49.107 29.21 89.876-.7 134.65-21.65-7.379-19.19-9.624-40.23-10.86-60.62-.689-15.85.496-31.32 4.578-46.81Zm89.262 94.27c-2.046.24-3.944 1.52-5.6 2.65-6.83 4.89-12.73 10.68-18.12 16.94 2.07 2.04 4.18 4.05 6.33 6.02 8.067-6.5 14.403-15.55 17.39-25.61Zm521.94-185.6-6.65 2.24c-41.04 13.78-82.94 26.7-126.54 30.56 2.34 2.32 4.31 5.07 6.04 7.99 1.51 1.28 3.03 2.92 2.6 4.86 1.4 2.83 2.64 5.7 3.82 8.41 6.9 16.41 14.86 32.55 20.67 49.43 1.69 7.05 8.32 16.91 5.23 23.73 46.35 20.19 104.01 11.2 139.42-25.73l-1.25-1.84c-20.35-30.14-38.23-63.26-43.34-99.65Zm125.72 85.21c-2.81-2.42-7.74 4.26-8.99 5.92-4.62 6.15-7.8 12.88-10.16 19.92 2.97 2.04 5.96 3.95 8.98 5.9l.17-.28c2.81-4.85 12.91-28.38 10-31.46Zm-881.49-.52.049.25c2.488.39 4.981.74 7.485 1.02 6.082.69 12.244 1 18.383 1.13-8.64-1.25-17.286-2.26-25.917-2.4Zm65.875-1173.52-2.045-.21-2.628-.32c-33.732-4.19-67.724-9.79-101.692-4.35 4.704 21.76 5.018 44.57 6.538 66.86 7.25 214.74 33.357 430.69 4.106 644.92l-.903 6.49c-10.662 76.19-23.348 152.65-18.241 229.85 3.983 70.37 18.303 139.55 32.53 208.41 3.42.86 6.84 1.72 10.27 2.56.1-.95.694-.4.81.2 42.137 11.25 86.114 12.22 129.41 9.39 8.164-.47 16.291-1.13 24.45-1.69 6.288-2.73 13.01-4.48 19.83-5.68 14.381-218.52 33.213-439.54 100.808-649.05 43.032-133.09 96.779-262.7 128.582-399.21 1.1-3.83 6.9-2.22 5.958 1.65l-.993 5.24c-8.074 42.75-15.352 85.64-27.925 127.42 9.545-10.4 20.431-19.58 29.44-30.46 2.81-3.43 5.39-7.04 7.611-10.89 2.105-4.77 5.486-8.5 10.719-9.62 2.4-.97 4.63 1.07 5.42 3.08 2.201 5.55 1.273 9.51-1.933 14.4l-.801 1.2c-14.139 20.9-36.77 33.11-55.446 49.51-15.634 52.2-33.628 103.65-51.27 155.18-.221 10.26 1.641 20.38 4.64 30.15 3.416 10.05 6.475 20.7 11.721 30.12 72.942 152.49 109.699 318.63 154.019 480.88 11.666 43.27 23.48 86.53 36.2 129.5l.18.78c2.9 12.12 7.42 16.99 20.7 16.97 66.52 3.06 134.83-7.8 195.43-34.56-33.38-89.09-56.56-181.28-74.58-274.72-9.1-44.16-16.46-88.68-22.67-133.37-8.64-57.06-16.26-114.25-23.99-171.15-15.8-111.52-15.11-225-35.25-335.84-6.88.23-12.78-7.94-8.59-14.05-1.46-6.07-.16-12.7 2.01-18.31l-.26-1.22c-23.6 20.96-54.39 23.61-38.59-16.68l1.09-2.73c11.87-29.57 26.97-61.15 20.27-93.58-68.448 36.54-152.115 30.65-225.68 14.63 5.73 20.84-9.706 33.61-27.12 19.62-3.14-2.54-6.22-5.17-9.24-7.89 4.427 17.56 2.05 35.96-2.04 53.36l-.39 2.01c-1.992 10.44-4.251 24.3-12.19 31.52-5.79 5.26-14.51 3.02-17.111-4.49-1.452-24.84-8.378-49.27-21.059-70.88 2.12 15.79 1.6 32.01-2.29 47.15-1.5 5.79-3.58 11.7-4.071 17.69l.075.98c.746 10.56-.656 20.25-13.816 20.46-31.205-5.5-11.519-79.35-31.388-102.71-6.037 28.19.996 65.24-26.44 83.95-7.58 4.74-16.83 1.99-18.371-7.21l.546-7.23c3.273-44.12 2.662-57.34-25.625-98.7-19.182 4.6-39.269 2.63-58.725.67Zm555.885 1133.84c.02.17.03.33.04.5.33.34.65.67.98 1.02l.48.51-.56-1.38c-.31-.2-.63-.43-.94-.65Zm-25.75-984.45-1.29 1.09c-.21.18-.43.36-.65.53 1.14 5.09 2.21 10.19 3.24 15.3l-.2-3.36c-.19-3.31.34-9.31-1.1-13.56Zm-20.83-452.23c-9.66-44.93-19.28-63.89-7.05.82l1.32 6.99c5.3 28.01 10.88 59.78 16.12 93.97l1.09 7.16c5.47 35.45 14.06 87.35 14.7 128.93.72 47.17-23.23 61.17-32.69 67.28-1.77 5.19.48 9.52 1.97 14.5 2.01 8 2.53 15.69 1.96 23.91-1.99 28.05-16.97 53.38-23.78 79.99 8.72-2.39 18.46-10.26 26.08-16.49 13.53-10.77 22.98-26.72 27.06-43.65 1.94-7.99.53-17.86 5.97-24.41 1.6-1.93 5.06-1.74 6.69 0 4.44 4.73 4.02 10.53 3.3 16.58-2.42 20.59-11.47 40.77-26.05 55.58-.69 7.61-2.96 14.38-4.46 21.61.58 1.62 1.16 3.24 1.71 4.87 9.88-8.53 18.13-18.85 24.53-30.22 28.55-50.15 18.58-107.9 11.19-162.59-1.48 3.66-4.86 5.12-8.15 4.76-1.89 4.73-6.83 1.72-7.02-4.4-1.22-38.1-6.29-92.28-15.6-147.78-5.55-33.06-12.27-66.59-18.89-97.41Zm-360.54 173.03c-14.161 43.96-69.97 52.53-102.57 79.34 16.374 43.21 62.204 89.47 48.72 145.2l-.076.42c-.405 2.14-1.734 8.16-.304 9.29.91.72 6.51-4.75 7.491-5.83 19.61-23.34 8.201-56.35 19.229-82.96 1.45-3.54 5.97-5.63 9.03-2.38 13.791 14.62 17.125 34.32 19.237 53.57l.073.66c1.699 14.98.766 30.4 5.2 44.96l.167.52c.942 2.81 2.706 6.78 4.673 7.49 5.43 1.97 3.39-6.73 3.58-10.17.57-9.94 4.79-19.25 6.27-29.04 3.16-21 .01-43.03-6.96-62.94-2.21-6.32 6.49-8.56 9.85-4.15 13.95 18.32 25.13 38.68 32.5 60.53 2.97 8.81 4.55 17.73 6.53 26.71 12.352-37.5 11.996-76.93-15.98-107.68-6.62-7.95 4.41-19.41 11.54-11.53 7.394 8.82 14.633 17.73 22.67 25.97 7.926 7.99 15.565 17.83 25.37 23.53-1.592-35.9-40.102-52.12-60.641-76.7-20.938-24.75-32.388-55.63-45.599-84.81ZM514.74 994.383c-7.498 22.807-16.282 45.207-23.059 68.257-1.408 15.6 3.394 22.07 14.849 31.97 4.957-28.29 7.01-56.99 9.66-85.59-.403-4.89-.484-9.817-1.45-14.637Zm3.7-11.21-.75 2.311.249.441.241.448.26-3.2Zm457.063-285.42 2.864 18.883c10.519 69.238 21.372 138.465 36.303 206.909.82 3.771 5.68-1.292 4.79-8.594-9.19-75.1-43.828-218.086-43.964-217.267l.007.069ZM887.11 545.914c.67.799 1.3 1.639 1.91 2.49-.13-.761-.26-1.531-.4-2.301-.51-.06-1.01-.119-1.51-.189Z" clip-rule="evenodd"/>
  <path fill="#D08B5B" fill-rule="evenodd" d="M924.415 173.222c-3.861-23.36 8.811-28.206 0-50.411-19.582-41.144-72.947-39.37-112.107-42.534-43.678-1.674-87.886 4.092-128.152 21.598a206.34 206.34 0 0 0-27.737 14.685c-7.668 4.831-6.614 14.017-1.779 19.028-34.865 49.372-14.924 115.644-42.743 167.614-5.139 9.289-11.936 17.619-16.403 27.285-6.79 14.693-7.225 35.746 8.173 45.503 21.687 11.641 33.789-11.406 44.445 22.003 53.218 116.49 160.217 123.051 261.793 62.317 8.788-4.888 17.757-10.413 24.393-18.093 15.063-16.951 13.289-40.789 13.622-61.958.186-12.405.217-24.812.096-37.22-.474-50.258-17.131-119.974-23.601-169.817Z" clip-rule="evenodd"/>
  <path fill="#000" fill-rule="evenodd" d="M708.067 33.508c61.33-27.82 130.891-38.37 197.791-31.45 33.02 3.41 65.606 10.726 96.622 22.61l2.71 1.051c7.66 2.947 15.91 5.871 21.73 11.869 6.77 6.97 8.67 17.51 3.83 26.12-3.76 6.69-10.52 11.489-17.73 14.05a60.01 60.01 0 0 1 7.21 6.99c3.81 4.34 4.1 10.529 0 14.81-7.9 8.25-18.15 14.219-29.192 17.08 1.24 5.99.57 12.62-2.09 18.59-7.633 17.137-29.135 19.179-45.681 18.161l-.499-.031-.92 10.53c-.49 5.61-3.85 9.96-9.55 10.82-.2.03-.401.05-.6.069 9.02 32.621 14.47 66.25 19.5 99.681 2.628 17.451 4.98 34.942 7.232 52.445l.748 5.835c2.4 18.87 5.4 37.93 6.44 56.94.93 17.25-2.36 33.72-12.99 47.64-9.54 12.48-22.55 21.83-36.54 28.77-31.61 15.689-64.88 27.37-99.84 32.79l-2.332.358c-13.495 2.06-27.399 3.796-40.748.062-11.729-3.28-24.03-11.74-21.38-25.33.89-4.59 7.31-4.79 9.51-1.24l.507.813c2.639 4.186 5.53 8.076 10.134 10.236 5.389 2.541 11.639 3.25 17.529 3.321 16.45.19 33.58-3.91 49.42-8.02 29.58-7.679 59.96-20.2 84.19-39.17 10.31-8.06 18.59-18.14 21.51-31.11 3.61-15.99.29-33.47-1.35-49.54-3.375-33.16-7.392-66.258-11.63-99.319l-.85-6.611c-3.569-27.64-7.319-55.29-9.1-83.09a7.83 7.83 0 0 1-1.44-3.42l-.279-1.81c-.241-1.55-.281-2.97-.111-4.28.01-5.02.15-10.01.44-15.031.049-.899.09-1.799.12-2.689-5.22 1.15-10.48 2.08-15.76 2.87a503.66 503.66 0 0 1-112.24 4.21c-18.67-1.391-37.199-3.78-55.67-6.77a745.03 745.03 0 0 1-28.11-5.08c-6.75-1.35-13.36-3.18-20-4.9-6.85 9.97-10.55 22.24-9.83 34.29.81 13.75 9.97 26.22 7.4 40.27-2.412 13.149-13.678 17.226-24.8 20.482l-4.73 1.367c-3.639 1.062-6.282 2.088-6.94 6.461-1.13 7.51.26 15.96.55 23.51.35 8.93.809 17.86 1.02 26.79.11 4.62.289 9.26.28 13.88-.01 3.28-.5 5.52-1.77 7.639a28.67 28.67 0 0 1 2.64 3.971c.25.46-.37.949-.739.57a26.036 26.036 0 0 0-3.151-2.791c-.56.691-1.21 1.391-1.971 2.141l-.059-.08c-2.38 2.37-6.16 2.6-9.111.08l-.775-.671c-2.16-1.893-3.644-3.47-4.244-6.599-.03-.16-.061-.32-.08-.48a30.991 30.991 0 0 0-16.01 3.84c-7.83 4.33-13.34 10.5-16.599 18.12a20.918 20.918 0 0 0 4.589 4.02c.25.17.03.54-.24.41a21.88 21.88 0 0 1-4.88-3.13c-1.17 3-1.99 6.22-2.49 9.63-1.76 12.04 1.38 26.75 12.26 33.61 4.71 2.97 10.09 4.58 15.67 4.6 2.719.009 5.07-.45 7.71-1.1 1.79-.44 3.57-1.08 5.44-1.08 1.6 0 3.08.4 4.45 1.2l-.38.033c-.924.087-.746.126.54.126 4 .171 6.289 4.231 4.45 7.761l-.242.545-.127.274-.146.936-.045.275-.056.189a.996.996 0 0 1-.034.091l5.999 9.148c7.355 11.191 14.874 22.34 23.431 32.562 6 7.17 12.36 14.2 19.08 20.71 6.04 5.85 13.28 8.67 20.12 13.27 3.651 2.44 4.72 7.55 1.401 10.84-9.741 9.67-23.531 1.99-31.521-5.87-7.56-7.45-14.09-16.41-19.72-25.38-9.99-15.95-17.94-32.91-21.42-51.32-1.45 1.33-3.3 2.16-5.17 2.81-3.75 1.3-7.88 1.84-11.84 1.98-7.59.25-15.19-1.59-22.02-4.85-27.79-13.25-31.87-52.93-14.88-76.33-2.291-6.644-3.571-13.852-4.961-20l-.632-2.747c-7.027-30.693-11.743-63.008.713-93.083 1.6-3.88 3.4-7.66 5.53-11.28 1.71-2.91 4.65-6.01 5.46-9.32 1.8-7.27-9.31-14.91-12.55-20.68-3.81-6.77-4.35-14.76.84-20.951.66-.779 1.379-1.5 2.16-2.129-4.92-8.92-5.15-20.14 1.33-28.94 4.26-5.8 10.76-9.86 17.86-11.09 4.34-.75 9.56-.47 14.33.87 26.119-24.25 55.92-44.51 88.369-59.23Zm-100.3 303.43c6.971-6.15 14.671-9.37 24.171-8.56 9.55.819 21.05 4.77 26.659 12.96 4.431 6.47-4.599 15.96-11.099 11.1-5.92-4.43-9.871-9.43-17.22-11.81-6.601-2.13-14.771-3.5-21.681-2.28-.76.13-1.519-.81-.83-1.41Z" clip-rule="evenodd"/>
  <path fill="#000" fill-rule="evenodd" d="M824.587 408.927c-6.723-2.743-12.721-7.317-17.106-13.161-1.524-2.031-1.92-4.176-1.6-6.138.36-2.207 1.665-4.206 3.445-5.547 1.786-1.346 4.019-2.009 6.178-1.671 1.877.294 3.744 1.321 5.223 3.452l.308.426c2.607 3.527 6.005 6.421 9.875 8.286 3.731 1.798 7.904 2.637 12.222 2.149 8.224-.929 13.892-5.377 19.917-11.416.747-.763 1.494-1.549 2.245-2.348a3.53 3.53 0 0 1 1.863-1.435 4.01 4.01 0 0 1 2.569.038 4.077 4.077 0 0 1 2.022 1.533c.461.678.723 1.515.638 2.479-.551 6.259-3.824 11.845-8.472 16.231-5.162 4.872-12.005 8.242-18.448 9.424-7.098 1.302-14.33.369-20.879-2.302Zm24.227-96.56c7.552 4.59 19.058 15.293 10.934 26.673-9.562 10.033-23.329-1.471-30.114-6.674-6.291-4.032-13.359 6.338-7.522 11.047 49.024 36.295 68.919-29.846 30.522-36.443-4.228-.727-5.798 3.977-3.82 5.397Zm-87.851-42.221c.835-10.356 16.607-12.708 18.176-2.46 1.405 9.18-.249 17.613-4.384 25.878-3.951 7.896-13.881 4.213-14.632-2.977-1.007-9.638.321-13.998.84-20.441Zm120.064-4.585c2.199-2.88 5.374-4.846 9.178-3.735 11.885 3.473 8.382 20.346 4.208 28.559-2.268 4.46-9.599 5.591-12.912 1.664-5.4-6.404-7.986-19.193-1.121-25.501.186-.326.393-.655.647-.987ZM774.588 224.83l1.877-.328c5.808-1.005 13.029-1.97 17.138 2.699 2.179 2.476 2.929 7.078 0 9.448-5.152 4.17-10.848 2.554-17.022 2.907a67.731 67.731 0 0 0-14.879 2.535c-10.752 3.073-19.513 8.683-28.696 14.843-1.205.808-2.435-.733-1.86-1.86 5.301-10.383 15.574-18.912 25.864-24.111 5.492-2.775 11.502-5.077 17.578-6.133Zm95.605-4.651 1.437.294c15.637 3.269 35.953 9.798 43.358 25.158.283 2.172-.016 2.637-.258 2.941l-.081.101c-.199.26-.359.618-1.3.914a35.23 35.23 0 0 1-.792-.198c-3.394-.89-6.08-2.115-8.68-3.387l-2.819-1.389c-3.27-1.603-6.57-3.148-10.066-4.289-7.462-2.434-15.138-4.149-22.932-5.064-1.69-.199-3.316-.769-4.6-1.746a6.907 6.907 0 0 1-2.573-3.919c-.55-2.209-.392-3.881.794-5.874a7.442 7.442 0 0 1 3.63-3.13c1.493-.607 3.193-.75 4.882-.412Z" clip-rule="evenodd"/>
</svg>
